<?xml version="1.0" encoding="UTF-8" standalone="no"?>
<!-- Generator: Adobe Illustrator 18.0.0, SVG Export Plug-In . SVG Version: 6.00 Build 0)  -->

<svg
   xmlns:dc="http://purl.org/dc/elements/1.1/"
   xmlns:cc="http://creativecommons.org/ns#"
   xmlns:rdf="http://www.w3.org/1999/02/22-rdf-syntax-ns#"
   xmlns:svg="http://www.w3.org/2000/svg"
   xmlns="http://www.w3.org/2000/svg"
   xmlns:sodipodi="http://sodipodi.sourceforge.net/DTD/sodipodi-0.dtd"
   xmlns:inkscape="http://www.inkscape.org/namespaces/inkscape"
   version="1.1"
   id="Capa_1"
   x="0px"
   y="0px"
   viewBox="0 0 10 15"
   xml:space="preserve"
   sodipodi:docname="external-link.svg"
   width="10"
   height="15"
   inkscape:version="0.92.4 5da689c313, 2019-01-14"><metadata
   id="metadata3835"><rdf:RDF><cc:Work
       rdf:about=""><dc:format>image/svg+xml</dc:format><dc:type
         rdf:resource="http://purl.org/dc/dcmitype/StillImage" /><dc:title></dc:title></cc:Work></rdf:RDF></metadata><defs
   id="defs3833"><inkscape:path-effect
     effect="powerstroke"
     id="path-effect4646"
     is_visible="true"
     offset_points="0,0.5"
     sort_points="true"
     interpolator_type="CubicBezierJohan"
     interpolator_beta="0.2"
     start_linecap_type="zerowidth"
     linejoin_type="extrp_arc"
     miter_limit="4"
     end_linecap_type="zerowidth" /></defs><sodipodi:namedview
   pagecolor="#ffffff"
   bordercolor="#666666"
   borderopacity="1"
   objecttolerance="10"
   gridtolerance="10"
   guidetolerance="10"
   inkscape:pageopacity="0"
   inkscape:pageshadow="2"
   inkscape:window-width="1321"
   inkscape:window-height="1037"
   id="namedview3831"
   showgrid="false"
   showguides="true"
   inkscape:guide-bbox="true"
   inkscape:zoom="19.45"
   inkscape:cx="-2.7387537"
   inkscape:cy="7.3205095"
   inkscape:window-x="2505"
   inkscape:window-y="29"
   inkscape:window-maximized="0"
   inkscape:current-layer="Capa_1" />
















<g
   id="g3800"
   transform="matrix(0.03389831,0,0,0.03389831,0.08474577,5.2907746)">
</g><g
   id="g3802"
   transform="matrix(0.03389831,0,0,0.03389831,0.08474577,5.2907746)">
</g><g
   id="g3804"
   transform="matrix(0.03389831,0,0,0.03389831,0.08474577,5.2907746)">
</g><g
   id="g3806"
   transform="matrix(0.03389831,0,0,0.03389831,0.08474577,5.2907746)">
</g><g
   id="g3808"
   transform="matrix(0.03389831,0,0,0.03389831,0.08474577,5.2907746)">
</g><g
   id="g3810"
   transform="matrix(0.03389831,0,0,0.03389831,0.08474577,5.2907746)">
</g><g
   id="g3812"
   transform="matrix(0.03389831,0,0,0.03389831,0.08474577,5.2907746)">
</g><g
   id="g3814"
   transform="matrix(0.03389831,0,0,0.03389831,0.08474577,5.2907746)">
</g><g
   id="g3816"
   transform="matrix(0.03389831,0,0,0.03389831,0.08474577,5.2907746)">
</g><g
   id="g3818"
   transform="matrix(0.03389831,0,0,0.03389831,0.08474577,5.2907746)">
</g><g
   id="g3820"
   transform="matrix(0.03389831,0,0,0.03389831,0.08474577,5.2907746)">
</g><g
   id="g3822"
   transform="matrix(0.03389831,0,0,0.03389831,0.08474577,5.2907746)">
</g><g
   id="g3824"
   transform="matrix(0.03389831,0,0,0.03389831,0.08474577,5.2907746)">
</g><g
   id="g3826"
   transform="matrix(0.03389831,0,0,0.03389831,0.08474577,5.2907746)">
</g><g
   id="g3828"
   transform="matrix(0.03389831,0,0,0.03389831,0.08474577,5.2907746)">
</g><g
   id="g889"
   transform="translate(0,-4.9999964)"><g
     transform="translate(0,5)"
     id="g884"><rect
       id="rect3837"
       width="6.7796621"
       height="6.7796621"
       x="0.59322041"
       y="2.6271138"
       style="fill:none;fill-opacity:1;stroke:#636b6f;stroke-width:1.18644083;stroke-linecap:square;stroke-miterlimit:4;stroke-dasharray:none;stroke-opacity:1" /><path
       style="fill:#636b6f;fill-opacity:1;stroke:#ffffff;stroke-width:0.84745777;stroke-linecap:square;stroke-linejoin:miter;stroke-miterlimit:4;stroke-dasharray:none;stroke-opacity:1;paint-order:stroke fill markers"
       d="M 9.5762726,0.4237237 H 5.8474585 V 1.6101646 H 7.542374 L 4.5968522,4.5556863 5.4443099,5.4031441 8.3898317,2.4576223 v 1.6949155 h 1.1864409 z"
       id="path4674"
       inkscape:connector-curvature="0" /></g></g></svg>