<?xml version="1.0" encoding="UTF-8" standalone="no"?>
<svg
   xmlns:dc="http://purl.org/dc/elements/1.1/"
   xmlns:cc="http://creativecommons.org/ns#"
   xmlns:rdf="http://www.w3.org/1999/02/22-rdf-syntax-ns#"
   xmlns:svg="http://www.w3.org/2000/svg"
   xmlns="http://www.w3.org/2000/svg"
   xmlns:sodipodi="http://sodipodi.sourceforge.net/DTD/sodipodi-0.dtd"
   xmlns:inkscape="http://www.inkscape.org/namespaces/inkscape"
   version="1.1"
   id="Capa_1"
   x="0px"
   y="0px"
   viewBox="0 0 16 16"
   xml:space="preserve"
   sodipodi:docname="icon.svg"
   width="16"
   height="16"
   inkscape:version="1.0 (4035a4fb49, 2020-05-01)"><metadata
   id="metadata3835"><rdf:RDF><cc:Work
       rdf:about=""><dc:format>image/svg+xml</dc:format><dc:type
         rdf:resource="http://purl.org/dc/dcmitype/StillImage" /><dc:title /></cc:Work></rdf:RDF></metadata><defs
   id="defs3833"><inkscape:path-effect
     effect="powerstroke"
     id="path-effect4646"
     is_visible="true"
     offset_points="0,0.5"
     sort_points="true"
     interpolator_type="CubicBezierJohan"
     interpolator_beta="0.2"
     start_linecap_type="zerowidth"
     linejoin_type="extrp_arc"
     miter_limit="4"
     end_linecap_type="zerowidth"
     lpeversion="0"
     scale_width="1" /></defs><sodipodi:namedview
   pagecolor="#ffffff"
   bordercolor="#666666"
   borderopacity="1"
   objecttolerance="10"
   gridtolerance="10"
   guidetolerance="10"
   inkscape:pageopacity="0"
   inkscape:pageshadow="2"
   inkscape:window-width="1916"
   inkscape:window-height="1057"
   id="namedview3831"
   showgrid="false"
   showguides="true"
   inkscape:guide-bbox="true"
   inkscape:zoom="13.753227"
   inkscape:cx="15.785467"
   inkscape:cy="-5.2455882"
   inkscape:window-x="1920"
   inkscape:window-y="19"
   inkscape:window-maximized="0"
   inkscape:current-layer="Capa_1"
   inkscape:document-rotation="0" />
















<g
   id="g3800"
   transform="matrix(0.03389831,0,0,0.03389831,0.08474577,5.2907746)">
</g><g
   id="g3802"
   transform="matrix(0.03389831,0,0,0.03389831,0.08474577,5.2907746)">
</g><g
   id="g3804"
   transform="matrix(0.03389831,0,0,0.03389831,0.08474577,5.2907746)">
</g><g
   id="g3806"
   transform="matrix(0.03389831,0,0,0.03389831,0.08474577,5.2907746)">
</g><g
   id="g3808"
   transform="matrix(0.03389831,0,0,0.03389831,0.08474577,5.2907746)">
</g><g
   id="g3810"
   transform="matrix(0.03389831,0,0,0.03389831,0.08474577,5.2907746)">
</g><g
   id="g3812"
   transform="matrix(0.03389831,0,0,0.03389831,0.08474577,5.2907746)">
</g><g
   id="g3814"
   transform="matrix(0.03389831,0,0,0.03389831,0.08474577,5.2907746)">
</g><g
   id="g3816"
   transform="matrix(0.03389831,0,0,0.03389831,0.08474577,5.2907746)">
</g><g
   id="g3818"
   transform="matrix(0.03389831,0,0,0.03389831,0.08474577,5.2907746)">
</g><g
   id="g3820"
   transform="matrix(0.03389831,0,0,0.03389831,0.08474577,5.2907746)">
</g><g
   id="g3822"
   transform="matrix(0.03389831,0,0,0.03389831,0.08474577,5.2907746)">
</g><g
   id="g3824"
   transform="matrix(0.03389831,0,0,0.03389831,0.08474577,5.2907746)">
</g><g
   id="g3826"
   transform="matrix(0.03389831,0,0,0.03389831,0.08474577,5.2907746)">
</g><g
   id="g3828"
   transform="matrix(0.03389831,0,0,0.03389831,0.08474577,5.2907746)">
</g><g
   transform="matrix(0.74812785,0,0,0.57730796,-4.8424678,11.915881)"
   style="font-size:40px;line-height:1.25;font-family:sans-serif;letter-spacing:0px"
   id="text28"
   aria-label="F"><path
     id="path24"
     style="font-style:normal;font-variant:normal;font-weight:normal;font-stretch:normal;font-family:Gelasio;-inkscape-font-specification:Gelasio"
     d="m 7.3126268,7.07442 q -0.2929687,0 -0.4882812,-0.3515625 Q 6.6485643,6.371295 6.6485643,6.0783262 q 0,-0.3320312 0.1367188,-0.5078125 Q 6.9220018,5.3947325 7.2930956,5.35567 8.7188768,5.2580137 9.7149706,4.9845762 10.711064,4.6916075 10.711064,4.10567 l 0.01953,-21.132813 q 0,-0.78125 -0.546875,-1.171875 -0.5468754,-0.390625 -1.2500004,-0.507812 -0.703125,-0.136719 -1.7578125,-0.214844 -0.4296875,-0.03906 -0.5664063,-0.15625 -0.1367187,-0.136719 -0.1367187,-0.566406 0,-0.292969 0.1757812,-0.644531 0.1953125,-0.351563 0.4882813,-0.351563 l 20.0000004,0.01953 0.722656,6.796875 q 0,0.3125 -0.273438,0.488282 -0.253906,0.175781 -0.527343,0.175781 -0.761719,0 -0.839844,-0.644531 -0.05859,-0.488282 -0.683594,-1.71875 -0.625,-1.230469 -1.523437,-2.207032 -0.898438,-0.976562 -1.855469,-0.976562 h -7.402344 v 11.3085937 h 5.15625 q 0.46875,-0.058594 0.859375,-0.703125 0.410156,-0.6445312 0.664063,-1.4257812 0.273437,-0.8007815 0.332031,-1.2890625 0.03906,-0.351563 0.332031,-0.488281 0.3125,-0.15625 0.683594,-0.15625 0.273437,0 0.527344,0.175781 0.273437,0.175781 0.273437,0.488281 v 8.652344 q 0,0.3125 -0.273437,0.4882812 -0.253907,0.1757813 -0.527344,0.1757813 -0.371094,0 -0.683594,-0.1367188 -0.292969,-0.15625 -0.332031,-0.5078125 -0.05859,-0.5273437 -0.351563,-1.3867187 -0.273437,-0.859375 -0.703125,-1.5234375 -0.410156,-0.6835938 -0.917968,-0.6835938 h -5.039063 v 8.9453125 q 0,1.1328125 1.367188,1.640625 1.367187,0.4882813 2.96875,0.4882813 0.351562,0 0.527343,0.15625 0.175782,0.15625 0.175782,0.5664062 0,0.2929688 -0.195313,0.6445313 Q 19.422002,7.07442 19.129033,7.07442 Z" /></g></svg>
