<?xml version="1.0" encoding="UTF-8" standalone="no"?>
<svg
   xmlns:dc="http://purl.org/dc/elements/1.1/"
   xmlns:cc="http://creativecommons.org/ns#"
   xmlns:rdf="http://www.w3.org/1999/02/22-rdf-syntax-ns#"
   xmlns:svg="http://www.w3.org/2000/svg"
   xmlns="http://www.w3.org/2000/svg"
   xmlns:sodipodi="http://sodipodi.sourceforge.net/DTD/sodipodi-0.dtd"
   xmlns:inkscape="http://www.inkscape.org/namespaces/inkscape"
   sodipodi:docname="logo.svg"
   inkscape:version="1.0 (4035a4fb49, 2020-05-01)"
   id="svg8"
   version="1.1"
   viewBox="0 0 42.333333 8.4666664"
   height="32"
   width="160">
  <defs
     id="defs2" />
  <sodipodi:namedview
     inkscape:window-maximized="0"
     inkscape:window-y="35"
     inkscape:window-x="1936"
     inkscape:window-height="1029"
     inkscape:window-width="1888"
     units="px"
     showgrid="true"
     inkscape:document-rotation="0"
     inkscape:current-layer="layer1"
     inkscape:document-units="mm"
     inkscape:cy="-50.049989"
     inkscape:cx="39.818688"
     inkscape:zoom="3.959798"
     inkscape:pageshadow="2"
     inkscape:pageopacity="0.0"
     borderopacity="1.0"
     bordercolor="#666666"
     pagecolor="#ffffff"
     id="base">
    <inkscape:grid
       type="xygrid"
       id="grid123"
       spacingx="4.2333332"
       spacingy="4.2333332"
       empspacing="1" />
  </sodipodi:namedview>
  <metadata
     id="metadata5">
    <rdf:RDF>
      <cc:Work
         rdf:about="">
        <dc:format>image/svg+xml</dc:format>
        <dc:type
           rdf:resource="http://purl.org/dc/dcmitype/StillImage" />
        <dc:title />
      </cc:Work>
    </rdf:RDF>
  </metadata>
  <g
     id="layer1"
     inkscape:groupmode="layer"
     inkscape:label="Layer 1">
    <g
       id="g80">
      <path
         d="m 0.21584974,6.6487232 q -0.0752964,0 -0.12549404,-0.076815 -0.04517805,-0.076815 -0.04517805,-0.1408265 0,-0.072547 0.03513861,-0.1109544 Q 0.11545487,6.28172 0.21083002,6.2731851 0.57727262,6.2518475 0.83328046,6.1921033 1.0892883,6.1280913 1.0892883,6.000067 l 0.00502,-4.617406 q 0,-0.1706989 -0.14055334,-0.2560484 Q 0.81320194,1.0412629 0.63249052,1.0156584 0.45177911,0.98578583 0.18071203,0.96871607 0.07027705,0.96018024 0.03513889,0.93457656 2.7735383e-7,0.90470401 2.7735383e-7,0.81081979 q 0,-0.0640121 0.0451780526462,-0.14082663 0.05019721,-0.0768149 0.12549403,-0.0768149 l 5.14023584,0.004268 0.1857311,1.48508064 q 0,0.06828 -0.070277,0.1066869 -0.065257,0.038407 -0.1355336,0.038407 -0.1957707,0 -0.2158497,-0.1408266 Q 5.0599197,1.9801075 4.8992872,1.7112567 4.7386549,1.4424058 4.5077459,1.2290322 4.2768368,1.0156586 4.0308686,1.0156586 H 2.1283789 v 2.4708669 h 1.325217 Q 3.5740702,3.4737227 3.6744654,3.3328964 3.7798801,3.1920699 3.8451373,3.0213709 q 0.070277,-0.1749664 0.085336,-0.2816532 0.010041,-0.076815 0.085336,-0.1066868 0.080317,-0.03414 0.1756916,-0.03414 0.070277,0 0.1355336,0.038407 0.070277,0.038407 0.070277,0.1066868 v 1.8904908 q 0,0.068279 -0.070277,0.1066868 -0.065257,0.038407 -0.1355336,0.038407 -0.095375,0 -0.1756916,-0.029872 -0.075296,-0.03414 -0.085336,-0.110954 Q 3.915414,4.5235215 3.8401176,4.3357527 3.7698409,4.1479838 3.6594062,4.0028898 3.5539911,3.8535283 3.4234774,3.8535283 H 2.1283789 V 5.808031 q 0,0.2475134 0.3513833,0.3584677 0.3513834,0.1066868 0.7630038,0.1066868 0.090356,0 0.1355335,0.034139 0.045178,0.03414 0.045178,0.1237568 0,0.064012 -0.050197,0.1408265 -0.045178,0.076815 -0.1204743,0.076815 z"
         style="font-style:normal;font-variant:normal;font-weight:normal;font-stretch:normal;font-size:9.11265px;line-height:1.05;font-family:Gelasio;-inkscape-font-specification:Gelasio;letter-spacing:0px;stroke-width:0.287239"
         id="path21" />
      <path
         d="m 6.0287338,6.6487232 q -0.080317,0 -0.1254941,-0.055477 -0.045178,-0.059745 -0.045178,-0.1194892 0,-0.072547 0.035139,-0.1109543 0.035139,-0.038407 0.1305138,-0.046942 0.2409486,-0.021338 0.4116204,-0.08535 0.1756916,-0.064012 0.1756916,-0.1877689 l 0.00502,-5.10816542 q 0,-0.20057124 -0.095375,-0.30299063 Q 6.4303151,0.52489872 6.2998016,0.49075892 6.1743076,0.45235149 5.9785369,0.42674686 5.9534377,0.42247894 5.8982203,0.41821103 5.8430028,0.40967519 5.8078641,0.40114127 5.7476264,0.3798036 5.717508,0.34139617 5.6873897,0.30298874 5.6873897,0.2304419 q 0,-0.0597451 0.030118,-0.11948924 Q 5.7526467,0.04694061 5.8078641,0.04267269 6.4252948,0.01280014 7.2585752,-1.6979646e-6 h 0.1305137 q 0.050197,0 0.095375,0.038407427965 0.045178,0.03840743 0.055218,0.13229165 V 5.9019139 q 0,0.1706989 0.090356,0.2560484 0.095375,0.08535 0.2158497,0.1152218 0.125494,0.025605 0.3062054,0.042674 0.110435,0.00854 0.1455732,0.038407 0.035139,0.025605 0.035139,0.1194892 0,0.055477 -0.050197,0.1152218 -0.045178,0.059745 -0.1204743,0.059745 z"
         style="font-style:normal;font-variant:normal;font-weight:normal;font-stretch:normal;font-size:9.11265px;line-height:1.05;font-family:Gelasio;-inkscape-font-specification:Gelasio;letter-spacing:0px;stroke-width:0.287239"
         id="path23" />
      <path
         d="m 9.1058474,5.6117272 q 0,-0.5291667 0.42166,-0.8406923 0.42166,-0.315793 1.0491306,-0.4608871 0.632489,-0.145094 1.45573,-0.2176411 V 3.4353158 q 0,-0.1792338 -0.100395,-0.3413978 -0.09537,-0.1664315 -0.331304,-0.2773858 -0.230909,-0.1109543 -0.602371,-0.1109543 -0.190751,0 -0.301186,0.021337 -0.105415,0.01707 -0.190751,0.05121 L 9.9039895,3.8108535 q -0.3011856,0 -0.4718575,-0.1152218 -0.1656521,-0.1152218 -0.1656521,-0.3798051 0,-0.2560484 0.250988,-0.4822245 0.2509881,-0.2304435 0.6977471,-0.3712702 0.446759,-0.1408266 1.003952,-0.1408266 0.707786,0 1.094308,0.1963038 0.391541,0.1920363 0.527075,0.4950269 0.140553,0.3029906 0.140553,0.6955981 V 5.790961 q 0,0.1749664 0.05521,0.3157931 0.05521,0.1408266 0.135533,0.1408266 0.07529,0 0.125495,-0.00427 0.05522,-0.00854 0.140553,-0.029873 0.08031,-0.021338 0.140554,0.046942 0.06023,0.064012 0.06023,0.1365592 0,0.046942 -0.03012,0.068279 -0.155613,0.098152 -0.401581,0.1835014 -0.245968,0.081082 -0.461818,0.081082 -0.21083,0 -0.326285,-0.01707 -0.110435,-0.01707 -0.20581,-0.1280241 -0.09036,-0.1109544 -0.09036,-0.3584678 V 6.1835654 Q 11.791414,6.478021 11.414932,6.6103127 11.03845,6.738337 10.511375,6.738337 10.18007,6.738337 9.8537859,6.6231152 9.5325272,6.5036291 9.3166774,6.2518481 9.1058474,5.9957998 9.1058474,5.6117272 Z m 1.0491306,-0.021338 q 0,0.1792339 0.08534,0.3371304 0.09036,0.1536291 0.250988,0.2475135 0.165653,0.089617 0.381502,0.089617 0.376482,0 0.677668,-0.1066869 0.301186,-0.1109538 0.476878,-0.2603154 V 4.3954973 Q 11.36976,4.4765793 10.983238,4.5875336 10.601736,4.6942205 10.375847,4.933199 10.154978,5.16791 10.154978,5.5903892 Z"
         style="font-style:normal;font-variant:normal;font-weight:normal;font-stretch:normal;font-size:9.11265px;line-height:1.05;font-family:Gelasio;-inkscape-font-specification:Gelasio;letter-spacing:0px;stroke-width:0.287239"
         id="path25" />
      <path
         d="m 14.10051,8.4666668 q -0.07529,0 -0.125494,-0.059745 -0.04518,-0.059745 -0.04518,-0.1152218 0,-0.093885 0.03514,-0.1237568 0.03514,-0.025605 0.145572,-0.03414 0.180711,-0.01707 0.301185,-0.046942 0.125495,-0.025605 0.21585,-0.1109544 0.09537,-0.08535 0.09537,-0.2560483 V 3.328629 q 0,-0.2005712 -0.08533,-0.3029906 -0.08533,-0.1066868 -0.205811,-0.1408266 -0.115454,-0.038407 -0.296165,-0.064012 -0.140553,-0.021337 -0.160632,-0.025605 -0.06024,-0.021337 -0.09035,-0.059745 -0.03012,-0.038407 -0.03012,-0.1109543 0,-0.059745 0.03012,-0.1194893 0.03514,-0.064012 0.09035,-0.06828 0.808181,-0.042675 1.531027,-0.042675 0.05019,0 0.09537,0.038407 0.04518,0.038407 0.05521,0.1322917 v 0.2688508 q 0.266048,-0.2304436 0.647549,-0.3712702 0.386522,-0.1408266 0.742925,-0.1408266 0.752964,0 1.234862,0.3072581 0.486917,0.3029906 0.707785,0.8065524 0.22087,0.5035619 0.22087,1.1138105 0,0.6017138 -0.245969,1.1095431 -0.245968,0.5035618 -0.757983,0.8108199 -0.512016,0.3072581 -1.27,0.3072581 -0.918616,0 -1.330236,-0.3115256 l 0.05019,0.3072581 v 1.0882056 q 0,0.1280242 0.256009,0.1877689 0.256007,0.064012 0.62747,0.08535 0.09537,0.00854 0.130514,0.046942 0.03514,0.038407 0.03514,0.1109544 0,0.059745 -0.04518,0.1152218 -0.04518,0.059745 -0.125493,0.059745 z m 2.650434,-2.0953294 q 0.778063,0 1.079248,-0.477957 0.306206,-0.4822245 0.306206,-1.3442541 0,-0.857762 -0.311225,-1.3357191 -0.311225,-0.4822244 -1.094308,-0.4822244 -0.271067,0 -0.582292,0.1280242 -0.311225,0.1237567 -0.491937,0.3029905 v 2.8122649 q 0.296166,0.396875 1.094308,0.396875 z"
         style="font-style:normal;font-variant:normal;font-weight:normal;font-stretch:normal;font-size:9.11265px;line-height:1.05;font-family:Gelasio;-inkscape-font-specification:Gelasio;letter-spacing:0px;stroke-width:0.287239"
         id="path27" />
      <path
         d="m 20.058967,4.5491263 q 0,-0.6187836 0.291146,-1.1266129 0.291146,-0.5078293 0.8383,-0.8022849 0.547155,-0.2987232 1.280039,-0.2987232 0.732885,0 1.26498,0.2987232 0.532095,0.2944556 0.813202,0.8022849 0.281106,0.5035619 0.281106,1.1266129 0,0.6187837 -0.291146,1.126613 -0.286127,0.5078293 -0.828261,0.8022849 -0.542134,0.2944557 -1.275019,0.2944557 -0.732885,0 -1.27,-0.2944557 Q 20.6262,6.1835686 20.340074,5.6800068 20.058967,5.1721774 20.058967,4.5491263 Z m 1.079249,0 q 0,0.6017138 0.120474,0.9985888 0.120475,0.396875 0.4066,0.6102486 0.291146,0.2091062 0.783084,0.2091062 0.491936,0 0.773042,-0.2091062 0.286127,-0.2133736 0.401581,-0.6102486 0.115456,-0.396875 0.115456,-0.9985888 0,-0.9089718 -0.296167,-1.3613239 -0.291146,-0.4566196 -1.013991,-0.4566196 -0.491937,0 -0.778064,0.2133736 -0.281107,0.2091062 -0.396561,0.6059812 -0.115454,0.396875 -0.115454,0.9985887 z"
         style="font-style:normal;font-variant:normal;font-weight:normal;font-stretch:normal;font-size:9.11265px;line-height:1.05;font-family:Gelasio;-inkscape-font-specification:Gelasio;letter-spacing:0px;stroke-width:0.287239"
         id="path29" />
      <path
         d="m 25.811615,6.6487232 q -0.08031,0 -0.125495,-0.055477 -0.04518,-0.059745 -0.04518,-0.1194892 0,-0.072547 0.03514,-0.1109543 0.03514,-0.038407 0.130514,-0.046942 0.582292,-0.046942 0.582292,-0.2731183 v -2.714113 q 0,-0.2005712 -0.08533,-0.3072581 -0.08533,-0.1066868 -0.20079,-0.1408266 -0.115455,-0.03414 -0.301186,-0.059745 -0.0251,-0.00427 -0.07529,-0.00853 -0.0502,-0.00853 -0.08533,-0.01707 -0.06023,-0.021337 -0.09035,-0.059745 -0.03012,-0.038407 -0.03012,-0.1109544 0,-0.059745 0.03514,-0.1194892 0.03514,-0.064012 0.08533,-0.06828 0.567232,-0.029872 1.480829,-0.042675 0.05019,0 0.09537,0.038407 0.04518,0.038407 0.05521,0.1322916 V 3.15793 q 0.296166,-0.3926075 0.587312,-0.6145161 0.291147,-0.2219086 0.697747,-0.2219086 0.43672,0 0.592332,0.1664314 0.160632,0.1664315 0.160632,0.4352823 0,0.1493616 -0.110435,0.2560483 -0.110435,0.1066869 -0.266048,0.162164 -0.150593,0.055477 -0.266047,0.055477 l -0.47688,-0.5120965 q -0.145574,0 -0.316246,0.098152 -0.170671,0.098152 -0.321264,0.2603159 -0.145574,0.162164 -0.23091,0.3499328 v 2.308703 q 0,0.1706989 0.130514,0.2560483 0.135535,0.08535 0.306206,0.1152218 0.170672,0.025605 0.426679,0.042674 0.110435,0.00854 0.145574,0.038407 0.03514,0.025605 0.03514,0.1194893 0,0.059745 -0.04518,0.1194892 -0.04518,0.055477 -0.125494,0.055477 z"
         style="font-style:normal;font-variant:normal;font-weight:normal;font-stretch:normal;font-size:9.11265px;line-height:1.05;font-family:Gelasio;-inkscape-font-specification:Gelasio;letter-spacing:0px;stroke-width:0.287239"
         id="path31" />
      <path
         d="m 31.55422,6.7767474 q -0.622449,0 -0.953754,-0.234711 Q 30.274182,6.3073253 30.274182,5.6970766 V 2.778125 h -0.577273 q -0.05521,-0.00427 -0.09035,-0.046942 -0.03012,-0.042675 -0.03012,-0.098152 0,-0.1408266 0.120475,-0.1835014 l 0.06525,-0.00427 q 0.296167,-0.029872 0.491936,-0.1450941 0.195771,-0.1194892 0.336324,-0.3712702 0.140554,-0.2517809 0.256009,-0.6913307 0.02008,-0.06828 0.07529,-0.08535 0.06023,-0.01707 0.120474,-0.012803 0.06525,0 0.08533,0 0.05521,0 0.06525,0.029872 0.01506,0.025605 0.01506,0.072547 v 1.1650202 h 1.48083 q 0.05521,0.00427 0.08533,0.046942 0.03514,0.042675 0.03514,0.098152 0,0.081082 -0.03514,0.1450941 -0.03012,0.059745 -0.08533,0.081082 H 31.207851 V 5.385548 q 0,0.4907595 0.160632,0.6870632 0.160633,0.1963038 0.396562,0.1963038 0.21585,0 0.376482,-0.025605 0.160632,-0.029872 0.266047,-0.064012 0.105414,-0.038407 0.306205,-0.1194893 0.125494,0.1066869 0.170672,0.2560485 -0.09537,0.08535 -0.326285,0.1963037 -0.225889,0.1066868 -0.501975,0.1835014 -0.271067,0.081082 -0.501977,0.081082 z"
         style="font-style:normal;font-variant:normal;font-weight:normal;font-stretch:normal;font-size:9.11265px;line-height:1.05;font-family:Gelasio;-inkscape-font-specification:Gelasio;letter-spacing:0px;stroke-width:0.287239"
         id="path33" />
      <path
         d="m 33.102643,6.415837 q 0,-0.095694 0.05027,-0.1758718 0.05306,-0.080177 0.14244,-0.1267312 0.08937,-0.046554 0.198299,-0.046554 0.108926,0 0.1983,0.046554 0.08937,0.046555 0.14244,0.1267312 0.05306,0.080177 0.05306,0.1758718 0,0.095695 -0.05306,0.1810445 -0.05306,0.085349 -0.14244,0.1344902 -0.08937,0.051727 -0.1983,0.051727 -0.108925,0 -0.198299,-0.051727 -0.08937,-0.049141 -0.14244,-0.1344902 -0.05027,-0.085349 -0.05027,-0.1810445 z"
         style="font-style:normal;font-variant:normal;font-weight:normal;font-stretch:normal;font-size:5.29167px;line-height:1.05;font-family:Gelasio;-inkscape-font-specification:Gelasio;letter-spacing:0px;stroke-width:0.275216"
         id="path36" />
      <path
         d="m 34.552182,6.7313717 q -0.04469,0 -0.06982,-0.033623 -0.02514,-0.036209 -0.02514,-0.072418 0,-0.043968 0.01955,-0.067245 0.01955,-0.023277 0.07262,-0.02845 0.323981,-0.036208 0.323981,-0.1655264 v -1.644918 q 0,-0.1215585 -0.04749,-0.1836309 -0.04747,-0.064659 -0.114511,-0.085349 -0.06424,-0.023278 -0.164783,-0.038795 -0.07821,-0.012932 -0.08937,-0.015518 -0.03352,-0.012932 -0.05027,-0.036209 -0.01675,-0.023277 -0.01675,-0.067245 0,-0.036208 0.01675,-0.072418 0.01955,-0.038795 0.05027,-0.041381 0.449665,-0.025863 0.823919,-0.025863 0.02793,0 0.05306,0.023277 0.02513,0.023277 0.03072,0.080176 v 0.2896712 q 0.07541,-0.069831 0.229021,-0.1706991 0.153613,-0.1008676 0.360291,-0.1836309 0.20947,-0.082763 0.416148,-0.082763 0.226229,0 0.385427,0.051728 0.161992,0.051727 0.256952,0.1939762 0.09775,0.1396629 0.09775,0.3957115 v 1.528533 q 0,0.098281 0.04748,0.1500083 0.04749,0.051727 0.111718,0.069831 0.06703,0.018105 0.164785,0.025863 0.01955,0 0.05865,0.00518 0.05027,0.00517 0.06983,0.025863 0.02234,0.018105 0.02234,0.069831 0,0.036209 -0.02513,0.072418 -0.02513,0.033623 -0.06983,0.033623 h -1.192587 q -0.04469,0 -0.06983,-0.033623 -0.02513,-0.036209 -0.02513,-0.072418 0,-0.043968 0.01676,-0.067245 0.01955,-0.025863 0.06982,-0.02845 0.103338,-0.00776 0.1983,-0.051727 0.09775,-0.046554 0.09775,-0.1137993 v -1.688894 q 0,-0.1008676 -0.07262,-0.1810445 -0.07262,-0.080177 -0.287674,-0.080177 -0.2374,0 -0.463628,0.1008677 -0.226229,0.1008676 -0.36867,0.2224261 V 6.27876 q 0,0.103454 0.04469,0.1577674 0.04747,0.051727 0.108925,0.067245 0.06424,0.015518 0.159198,0.025863 0.06144,0.00517 0.08099,0.023277 0.01955,0.015518 0.01955,0.072418 0,0.033623 -0.02793,0.069831 -0.02514,0.036209 -0.06703,0.036209 z"
         style="font-style:normal;font-variant:normal;font-weight:normal;font-stretch:normal;font-size:5.29167px;line-height:1.05;font-family:Gelasio;-inkscape-font-specification:Gelasio;letter-spacing:0px;stroke-width:0.275216"
         id="path38" />
      <path
         d="m 39.129822,6.8063759 q -0.633998,0 -0.963567,-0.3569164 -0.329567,-0.3569163 -0.329567,-1.0112629 0,-0.4164023 0.170369,-0.716419 0.173164,-0.3026029 0.460837,-0.457784 0.287673,-0.155181 0.628413,-0.155181 0.499938,0 0.754096,0.2327716 0.254158,0.2301851 0.335154,0.6595192 0.03352,0.1758719 0.03352,0.4293341 h -1.7819 q 0.0028,0.3879526 0.111718,0.6362422 0.108924,0.2482896 0.282087,0.3595027 0.173163,0.1112131 0.371463,0.1112131 0.215056,0 0.388219,-0.090522 0.175956,-0.090522 0.265329,-0.2534622 0.0028,-0.00518 0.0084,-0.018105 0.0084,-0.015518 0.01675,-0.020691 0.01117,-0.00518 0.02793,-0.00258 l 0.139647,0.059486 q 0.03072,0.010345 0.03072,0.031036 0,0.010345 -0.01675,0.041381 -0.131268,0.243117 -0.363084,0.3827798 -0.229021,0.139663 -0.569761,0.139663 z m 0.469216,-1.6138826 q 0,-0.4267477 -0.139647,-0.6310694 -0.136856,-0.2043217 -0.365877,-0.2043217 -0.220642,0 -0.351911,0.064659 -0.131269,0.062073 -0.209472,0.2457033 -0.07541,0.1836308 -0.08937,0.5405471 z"
         style="font-style:normal;font-variant:normal;font-weight:normal;font-stretch:normal;font-size:5.29167px;line-height:1.05;font-family:Gelasio;-inkscape-font-specification:Gelasio;letter-spacing:0px;stroke-width:0.275216"
         id="path40" />
      <path
         d="m 41.593201,6.8089622 q -0.346325,0 -0.530659,-0.1422493 Q 40.880999,6.5244636 40.880999,6.1546156 V 4.3855521 h -0.321188 q -0.03072,-0.00258 -0.05027,-0.02845 -0.01676,-0.025863 -0.01676,-0.059486 0,-0.085349 0.06703,-0.1112131 l 0.03631,-0.00258 q 0.164784,-0.018105 0.273709,-0.087936 0.108925,-0.072418 0.187127,-0.2250125 0.07821,-0.1525946 0.142441,-0.4189887 0.01118,-0.041381 0.0419,-0.051727 0.03352,-0.010345 0.06703,-0.00776 0.03631,0 0.04749,0 0.03072,0 0.03631,0.018105 0.0084,0.015518 0.0084,0.043968 v 0.7060737 h 0.823918 q 0.03072,0.00258 0.04749,0.02845 0.01955,0.025863 0.01955,0.059486 0,0.049141 -0.01955,0.087936 -0.01675,0.036209 -0.04749,0.049141 h -0.823918 v 1.5802599 q 0,0.2974303 0.08937,0.4164024 0.08937,0.1189721 0.220643,0.1189721 0.120096,0 0.209471,-0.015518 0.08937,-0.018105 0.148025,-0.038795 0.05865,-0.023277 0.17037,-0.072418 0.06983,0.064659 0.09496,0.155181 -0.05306,0.051727 -0.181541,0.118972 -0.125682,0.064659 -0.279294,0.1112131 -0.15082,0.049141 -0.279296,0.049141 z"
         style="font-style:normal;font-variant:normal;font-weight:normal;font-stretch:normal;font-size:5.29167px;line-height:1.05;font-family:Gelasio;-inkscape-font-specification:Gelasio;letter-spacing:0px;stroke-width:0.275216"
         id="path42" />
    </g>
  </g>
</svg>
