<?xml version="1.0" encoding="UTF-8"?>
<svg viewBox="0 0 178.78444 178.35602" xmlns="http://www.w3.org/2000/svg">
 <g transform="translate(-136.89 -361.85)" stroke="#000" stroke-width="2">
  <path d="m200.01 364.45v174.76" fill="none"/>
  <path d="m249.51 362.93v174.76" fill="none"/>
  <path d="m137.89 414.96h174.76" fill="none"/>
  <path d="m138.9 469.5h174.76" fill="none"/>
  <path d="m266.05 362.85c17.317 13.619 31.373 30.861 48.62 44.548-5.6697 5.2468-10.334-5.7541-15.167-8.2324-11.955-11.701-23.414-24.064-36.804-34.17l3.351-2.1456z"/>
  <path d="m305.31 367.12c-9.2132 6.0873-16.95 14.285-24.043 22.682-4.2967 4.0039-3.9316 12.117-10.264 13.645 3.6257-8.7506 9.2335-16.467 16.395-22.675 5.3461-5.1794 10.588-11.359 17.913-13.652z"/>
  <path d="m172.42 372.69c-2.674-0.49567-11.991 2.1652-10.445 1.917 2.4912-1.9686-6.2231 6.5825-4.5363 10.505-1.1832 10.746 10.21 16.955 19.349 18.04 2.3204 0.20924 8.5927-2.755 3.2503-0.15573 5.7404-7.2532 4.2259-19.119-1.8802-25.894-3.8397-2.3743-11.256-7.701-3.2584-6.8878 9.01 4.1554 14.036 14.755 11.639 24.365-0.30497 10.69-15.099 13.553-22.468 7.754-9.5682-3.1538-13.041-15.405-7.6938-23.579 3.3869-6.0303 15.195-9.1522 18.453-7.815l-2.4103 1.7512z"/>
  <path d="m214.32 422.48c10.124 10.79 19.187 22.651 30.48 32.265 4.6849 4.3526-3.8795 7.2545-4.2151 1.162-10.92-9.415-19.535-21.124-29.669-31.341l3.404-2.086z"/>
  <path d="m240.78 425.69c-8.0268 7.5552-17.969 13.122-24.691 21.964-0.3697 4.0065-9.616 9.6592-4.3193 2.7953 5.9022-9.5559 16.436-14.734 24.328-22.444 1.2081-1.3191 3.1301-1.5485 4.6819-2.3158z"/>
  <path d="m161.33 483.96c-3.3093 0.6586-8.0703 2.8198-6.9305 2.3922-3.168 1.8711-3.1459 1.6422-1.7059 1.2668-8.8352 5.0023-13.904 21.166-4.8826 27.966 5.1498 5.1076 20.556 4.5896 20.602 3.424-2.7514 1.744 5.1342-5.6148 3.993-9.0783 2.3372-9.6919-6.4922-17.444-13.334-22.61-9.3838-0.7168 5.7907-5.7532 7.1791 0.82526 7.5813 6.0978 13.283 16.119 8.1327 25.646-4.7116 8.0949-15.874 11.053-24.082 6.5832-12.446-2.0154-12.754-17.107-7.0673-25.792 3.7953-6.1632 17.772-13.094 20.072-12.11l-1.9768 1.4867z"/>
  <path d="m156.82 423.18c13.997 8.0274 24.126 20.941 35.501 32.067-5.0023 5.1446-8.1484-4.5391-12.174-7.0382-7.8904-8.6046-16.21-17.311-26.646-22.805l3.3187-2.2234z"/>
  <path d="m189.24 422.86c-7.959 10.161-16.78 19.562-26.069 28.517-1.2818 3.5348-13.126 11.787-6.1696 4.3785 9.3163-10.012 19.514-19.264 27.705-30.302 0.93428-1.594 3.0327-1.7455 4.5343-2.5933z"/>
  <path d="m276.63 422.49c-2.9804 1.7381-4.475 2.4173-3.4614 1.9478-1.7468 1.1225-8.254 4.4881-3.0361 1.7356-10.123 6.3242-6.9032 19.308 3.2697 23.417 6.5332 2.8381 14.598 3.4411 20.913-0.45179-6.6426 4.9498 5.6612-5.5344 1.3779-9.8077-3.4717-8.8869-13.8-12.392-22.61-12.924-8.5684-0.74035 6.0256-4.2911 8.9977-1.4149 8.5579 1.3893 19.664 8.4967 17.132 18.584-3.1792 8.3052-14.185 11.986-22.422 10.097-8.8931-0.83788-21.053-10.628-15.125-20.264 1.2682-3.8446 9.3084-9.0342 10.137-8.8952-3.7173 2.427 15.162-9.4059 4.8266-2.0245z"/>
 </g>
</svg>
